<svg width="268" height="161" viewBox="0 0 268 161" fill="none" xmlns="http://www.w3.org/2000/svg">
<path fill-rule="evenodd" clip-rule="evenodd" d="M46.7167 52.0405C56.2814 38.769 77.3077 45.5097 77.3077 61.8472V151.658C77.3077 156.818 73.1093 161 67.9302 161C62.7512 161 58.5528 156.818 58.5528 151.658V139.047H16.9093C3.16132 139.047 -4.82018 123.55 3.19772 112.425L46.7167 52.0405ZM58.5528 120.364V67.6531L20.5646 120.364H58.5528Z" fill="#0080AE"/>
<path fill-rule="evenodd" clip-rule="evenodd" d="M238.783 51.3313C248.407 39 268 45.8886 268 61.6036V151.794C268 156.878 263.928 161 258.905 161C253.882 161 249.81 156.878 249.81 151.794V66.9045L230.117 92.1375C227.003 96.1271 221.283 96.8063 217.342 93.6545C213.401 90.5027 212.73 84.7135 215.843 80.7238L238.783 51.3313Z" fill="#0080AE"/>
<path fill-rule="evenodd" clip-rule="evenodd" d="M148.491 70.3252C130.413 70.3252 115.758 84.985 115.758 103.069C115.758 121.153 130.413 135.813 148.491 135.813C166.569 135.813 181.224 121.153 181.224 103.069C181.224 84.985 166.569 70.3252 148.491 70.3252ZM90.579 103.069C90.579 71.0744 116.507 45.1377 148.491 45.1377C180.475 45.1377 206.403 71.0744 206.403 103.069C206.403 135.063 180.475 161 148.491 161C116.507 161 90.579 135.063 90.579 103.069Z" fill="#FFDAD4"/>
<path d="M153.327 109.528C157.145 107.629 159.769 103.688 159.769 99.1333C159.769 92.7268 154.577 87.5333 148.173 87.5333C141.769 87.5333 136.577 92.7268 136.577 99.1333C136.577 103.688 139.201 107.629 143.019 109.528V114.496C143.019 117.401 145.327 119.756 148.173 119.756C151.019 119.756 153.327 117.401 153.327 114.496L153.327 109.528Z" fill="#BA1B1B"/>
<circle cx="147.5" cy="16.5" r="16.5" fill="#3BB6ED"/>
</svg>
