<svg width="292" height="161" viewBox="0 0 292 161" fill="none" xmlns="http://www.w3.org/2000/svg">
<path fill-rule="evenodd" clip-rule="evenodd" d="M46.7167 52.0405C56.2814 38.769 77.3077 45.5097 77.3077 61.8472V151.658C77.3077 156.818 73.1093 161 67.9302 161C62.7512 161 58.5528 156.818 58.5528 151.658V139.047H16.9093C3.16132 139.047 -4.82018 123.55 3.19772 112.425L46.7167 52.0405ZM58.5528 120.364V67.6531L20.5646 120.364H58.5528Z" fill="#0080AE"/>
<path fill-rule="evenodd" clip-rule="evenodd" d="M260.717 52.0405C270.281 38.769 291.308 45.5097 291.308 61.8472V151.658C291.308 156.818 287.109 161 281.93 161C276.751 161 272.553 156.818 272.553 151.658V139.047H230.909C217.161 139.047 209.18 123.55 217.198 112.425L260.717 52.0405ZM272.553 120.364V67.6531L234.565 120.364H272.553Z" fill="#0080AE"/>
<path fill-rule="evenodd" clip-rule="evenodd" d="M183.66 103C183.677 94.5972 180.479 86.1881 174.067 79.7759C161.28 66.9887 140.551 66.9853 127.768 79.7682C121.355 86.1811 118.161 94.5936 118.183 103H93.0001C92.9752 88.1472 98.6276 73.2884 109.958 61.958C132.574 39.342 169.248 39.3481 191.871 61.9716C203.201 73.3009 208.858 88.1536 208.843 103H183.66Z" fill="#3BB6ED"/>
<path fill-rule="evenodd" clip-rule="evenodd" d="M183.66 161C183.677 152.597 180.479 144.188 174.067 137.776C161.28 124.989 140.551 124.985 127.768 137.768C121.355 144.181 118.161 152.594 118.183 161H93.0001C92.9752 146.147 98.6276 131.288 109.958 119.958C132.574 97.342 169.248 97.3481 191.871 119.972C203.201 131.301 208.858 146.154 208.843 161H183.66Z" fill="#C2E8FF"/>
<circle cx="150.5" cy="16.5" r="16.5" fill="#0080AE"/>
</svg>
