<svg width="291" height="161" viewBox="0 0 291 161" fill="none" xmlns="http://www.w3.org/2000/svg">
<path fill-rule="evenodd" clip-rule="evenodd" d="M93.8075 126.106C99.737 132.06 107.944 135.745 117.012 135.745C135.096 135.745 149.756 121.09 149.756 103.012C149.756 93.9431 146.067 85.7354 140.106 79.8073L157.914 62.0001C168.434 72.4849 174.944 86.9886 174.944 103.012C174.944 134.996 149.007 160.924 117.012 160.924C100.99 160.924 86.4875 154.422 76.0002 143.913L93.8075 126.106Z" fill="#3BB6ED"/>
<path fill-rule="evenodd" clip-rule="evenodd" d="M200.184 103C200.166 111.403 203.364 119.812 209.776 126.224C222.563 139.011 243.292 139.015 256.075 126.232C262.488 119.819 265.683 111.406 265.66 103L290.843 103C290.868 117.853 285.216 132.712 273.885 144.042C251.269 166.658 214.595 166.652 191.972 144.028C180.643 132.699 174.985 117.846 175 103L200.184 103Z" fill="#C2E8FF"/>
<path fill-rule="evenodd" clip-rule="evenodd" d="M0 62.5C0 52.835 7.83502 45 17.5 45H57C62.2467 45 66.5 49.2533 66.5 54.5C66.5 59.7467 62.2467 64 57 64H19V94H49C58.665 94 66.5 101.835 66.5 111.5V143.5C66.5 153.165 58.665 161 49 161H9.5C4.25329 161 0 156.747 0 151.5C0 146.253 4.25329 142 9.5 142H47.5V113H17.5C7.83502 113 0 105.165 0 95.5V62.5Z" fill="#0080AE"/>
</svg>
